<svg width="64" height="64" viewBox="0 0 64 64" fill="none" xmlns="http://www.w3.org/2000/svg">
<g filter="url(#filter0_d_8_846)">
<circle cx="32" cy="28" r="24" fill="white"/>
</g>
<g filter="url(#filter1_d_8_846)">
<path d="M31.997 23.9983C29.7935 23.9983 27.9953 25.7965 27.9953 28C27.9953 30.2035 29.7935 32.0017 31.997 32.0017C34.2005 32.0017 35.9987 30.2035 35.9987 28C35.9987 25.7965 34.2005 23.9983 31.997 23.9983ZM43.9991 28C43.9991 26.3429 44.0141 24.7008 43.9211 23.0467C43.828 21.1254 43.3897 19.4202 41.9847 18.0153C40.5768 16.6073 38.8746 16.172 36.9533 16.0789C35.2962 15.9859 33.6541 16.0009 32 16.0009C30.3429 16.0009 28.7008 15.9859 27.0467 16.0789C25.1254 16.172 23.4202 16.6103 22.0153 18.0153C20.6073 19.4232 20.172 21.1254 20.0789 23.0467C19.9859 24.7038 20.0009 26.3459 20.0009 28C20.0009 29.6541 19.9859 31.2992 20.0789 32.9533C20.172 34.8746 20.6103 36.5798 22.0153 37.9847C23.4232 39.3927 25.1254 39.828 27.0467 39.9211C28.7038 40.0141 30.3459 39.9991 32 39.9991C33.6571 39.9991 35.2992 40.0141 36.9533 39.9211C38.8746 39.828 40.5798 39.3897 41.9847 37.9847C43.3927 36.5768 43.828 34.8746 43.9211 32.9533C44.0171 31.2992 43.9991 29.6571 43.9991 28V28ZM31.997 34.1572C28.5897 34.1572 25.8398 31.4073 25.8398 28C25.8398 24.5927 28.5897 21.8428 31.997 21.8428C35.4043 21.8428 38.1542 24.5927 38.1542 28C38.1542 31.4073 35.4043 34.1572 31.997 34.1572ZM38.4063 23.0286C37.6108 23.0286 36.9684 22.3862 36.9684 21.5907C36.9684 20.7951 37.6108 20.1527 38.4063 20.1527C39.2019 20.1527 39.8443 20.7951 39.8443 21.5907C39.8445 21.7796 39.8075 21.9667 39.7353 22.1412C39.6631 22.3158 39.5572 22.4744 39.4237 22.608C39.2901 22.7416 39.1315 22.8475 38.9569 22.9197C38.7823 22.9918 38.5952 23.0289 38.4063 23.0286V23.0286Z" fill="#4DA8FF"/>
<path d="M40.3443 21.5907C40.3443 20.519 39.478 19.6527 38.4063 19.6527C37.3346 19.6527 36.4684 20.519 36.4684 21.5907C36.4684 22.6623 37.3345 23.5285 38.4061 23.5286C38.6606 23.5289 38.9127 23.479 39.1479 23.3817C39.3833 23.2844 39.5971 23.1416 39.7772 22.9616C39.9573 22.7815 40.1001 22.5676 40.1974 22.3323C40.2946 22.0971 40.3445 21.8451 40.3443 21.5907ZM40.3443 21.5907H39.8443L40.3443 21.59C40.3443 21.5903 40.3443 21.5905 40.3443 21.5907ZM27.0467 39.9211C25.1254 39.828 23.4232 39.3927 22.0153 37.9847C20.6103 36.5798 20.172 34.8746 20.0789 32.9533C19.9972 31.5011 19.9988 30.0557 20.0004 28.6051C20.0007 28.4035 20.0009 28.2018 20.0009 28C20.0009 27.7981 20.0007 27.5965 20.0004 27.3949C19.9988 25.9449 19.9972 24.5016 20.0789 23.0467L27.0467 39.9211ZM27.0467 39.9211C28.5016 40.0028 29.9449 40.0012 31.395 39.9996C31.5965 39.9993 31.7982 39.9991 32 39.9991C32.2022 39.9991 32.4043 39.9993 32.6061 39.9996C34.0581 40.0012 35.5011 40.0028 36.9533 39.9211C38.8746 39.828 40.5798 39.3897 41.9847 37.9847C43.3927 36.5768 43.828 34.8746 43.9211 32.9533L27.0467 39.9211ZM43.4216 23.0708L43.4218 23.0747C43.5027 24.5116 43.5011 25.9393 43.4995 27.3926C43.4993 27.5945 43.4991 27.797 43.4991 28C43.4991 28.2275 43.4994 28.4542 43.4998 28.6803C43.5019 30.1091 43.5039 31.5121 43.4219 32.9244L43.4216 32.9292C43.3316 34.7878 42.9158 36.3466 41.6312 37.6312C40.3495 38.9129 38.7876 39.3316 36.9292 39.4216L36.9253 39.4218C35.4884 39.5027 34.0607 39.5011 32.6073 39.4995C32.4054 39.4993 32.203 39.4991 32 39.4991C31.7974 39.4991 31.5954 39.4993 31.3937 39.4995C29.9423 39.5011 28.5143 39.5027 27.0747 39.4218L27.0708 39.4216C25.2122 39.3316 23.6534 38.9158 22.3688 37.6312C21.0871 36.3495 20.6684 34.7876 20.5784 32.9292L20.5784 32.9292L20.5782 32.9253C20.4973 31.4883 20.4989 30.0583 20.5005 28.6063C20.5007 28.4046 20.5009 28.2026 20.5009 28C20.5009 27.7974 20.5007 27.5953 20.5005 27.3937C20.4989 25.9423 20.4973 24.5143 20.5782 23.0747L20.5782 23.0747L20.5784 23.0708C20.6684 21.2122 21.0842 19.6534 22.3688 18.3688C23.6505 17.0871 25.2124 16.6684 27.0708 16.5784L27.0708 16.5784L27.0747 16.5782C28.5116 16.4973 29.9393 16.4989 31.3926 16.5005C31.5946 16.5007 31.797 16.5009 32 16.5009C32.2026 16.5009 32.4047 16.5007 32.6063 16.5005C34.0577 16.4989 35.4857 16.4973 36.9253 16.5782V16.5782L36.9292 16.5784C38.7878 16.6684 40.3466 17.0842 41.6312 18.3688C42.9129 19.6505 43.3316 21.2124 43.4216 23.0708ZM28.4953 28C28.4953 26.0727 30.0697 24.4983 31.997 24.4983C33.9243 24.4983 35.4987 26.0727 35.4987 28C35.4987 29.9273 33.9243 31.5017 31.997 31.5017C30.0697 31.5017 28.4953 29.9273 28.4953 28ZM25.3398 28C25.3398 31.6834 28.3136 34.6572 31.997 34.6572C35.6804 34.6572 38.6542 31.6834 38.6542 28C38.6542 24.3166 35.6804 21.3428 31.997 21.3428C28.3136 21.3428 25.3398 24.3166 25.3398 28Z" stroke="black"/>
</g>
<defs>
<filter id="filter0_d_8_846" x="0" y="0" width="64" height="64" filterUnits="userSpaceOnUse" color-interpolation-filters="sRGB">
<feFlood flood-opacity="0" result="BackgroundImageFix"/>
<feColorMatrix in="SourceAlpha" type="matrix" values="0 0 0 0 0 0 0 0 0 0 0 0 0 0 0 0 0 0 127 0" result="hardAlpha"/>
<feOffset dy="4"/>
<feGaussianBlur stdDeviation="4"/>
<feColorMatrix type="matrix" values="0 0 0 0 0.0611066 0 0 0 0 0.437703 0 0 0 0 0.793181 0 0 0 0.15 0"/>
<feBlend mode="normal" in2="BackgroundImageFix" result="effect1_dropShadow_8_846"/>
<feBlend mode="normal" in="SourceGraphic" in2="effect1_dropShadow_8_846" result="shape"/>
</filter>
<filter id="filter1_d_8_846" x="16" y="16" width="32.0005" height="32" filterUnits="userSpaceOnUse" color-interpolation-filters="sRGB">
<feFlood flood-opacity="0" result="BackgroundImageFix"/>
<feColorMatrix in="SourceAlpha" type="matrix" values="0 0 0 0 0 0 0 0 0 0 0 0 0 0 0 0 0 0 127 0" result="hardAlpha"/>
<feOffset dy="4"/>
<feGaussianBlur stdDeviation="2"/>
<feComposite in2="hardAlpha" operator="out"/>
<feColorMatrix type="matrix" values="0 0 0 0 0 0 0 0 0 0 0 0 0 0 0 0 0 0 0.25 0"/>
<feBlend mode="normal" in2="BackgroundImageFix" result="effect1_dropShadow_8_846"/>
<feBlend mode="normal" in="SourceGraphic" in2="effect1_dropShadow_8_846" result="shape"/>
</filter>
</defs>
</svg>
